<?xml version="1.0" encoding="UTF-8"?>
<svg width="752pt" height="752pt" version="1.1" viewBox="0 0 752 752" xmlns="http://www.w3.org/2000/svg">
 <path d="m235.65 393.29v-34.598c0-77.461 62.863-140.33 140.35-140.33 77.473 0 140.35 62.871 140.35 140.33v34.598c0 77.469-62.875 140.36-140.35 140.36-77.484 0-140.35-62.887-140.35-140.36zm151.69 128.76v-29.258c-3.7539 0.3125-7.543 0.46875-11.352 0.46875-1.8594 0-3.7109-0.039063-5.5469-0.10938l0.015626 28.898zm-39.379-7.168-0.011719-24.547c-5.7617-1.2266-11.402-2.8164-16.879-4.7578l0.015625 29.305zm74.824 0v-29.992c-5.4766 2.043-11.117 3.7148-16.883 5.0352v24.957zm-106.89-18.652-0.007812-17.117c-5.8711-2.9414-11.52-6.3047-16.875-10.043l0.007812 27.16zm138.95 0v-28.504c-5.3477 3.875-10.996 7.3633-16.883 10.426v18.078zm36.141-137.54c0-63.461-51.523-114.98-114.99-114.98-63.477 0-114.99 51.516-114.99 114.98 0 63.473 51.516 114.99 114.99 114.99 63.469 0 114.99-51.52 114.99-114.99zm-210.55 109.88-0.011719-15.152c-4.8867-4.9258-9.3906-10.234-13.484-15.883l0.011719 31.035zm206.47 0v-31.691h-1.3984c-3.6953 5.1523-7.7227 10.027-12.07 14.598v17.094zm-138.34-52.188c-16.367 2.2188-32.109 3.8242-33.422-8.6094 0.47656-5.6523 2.0703-10.793 4.2148-15.676l-3.8086-8.9297 5.3281-2.8672-5.6211-2.2344c1.8672-3.8906 1.4922-7.6562 1.168-11.414-6.7461-1.1055-10.91-3.8828-11.141-9.2344l16.578-23.27 0.17969-3.3125-3.2148-4.9297 11.625-20.43c11.016-27.004 29.855-44.902 74.973-32.145 41.293 17.398 46.852 46.488 37.223 80.539-11.633 24.203-23.5 48.43-14.594 70.359l-72.289 31.805c2.4727-15.332-0.125-29.805-7.1992-39.652zm-89.93 11.246-0.015625-3.0781c-3.2344-5.75-6.0781-11.785-8.4492-18.027l0.011719 21.105zm245.05 0v-26.406c-2.3047 6.8984-5.1328 13.527-8.457 19.867v6.5391z" fill-rule="evenodd"/>
</svg>
