<?xml version="1.0" encoding="UTF-8"?>
<svg width="752pt" height="752pt" version="1.1" viewBox="0 0 752 752" xmlns="http://www.w3.org/2000/svg">
 <g>
  <path d="m345.69 357.06c3.3164 1.8945 7.5781 0.94531 9.9453-2.3672 0-0.47266 3.7891-6.1562 10.891-6.1562 3.3164 0 5.6836 1.4219 9.4727 3.7891 3.7891 2.3672 8.5234 5.6836 14.68 5.6836h1.4219c10.418 0 18.469-8.0508 21.785-13.262 1.8945-3.3164 0.94531-7.5781-1.8945-9.9453-3.3164-1.8945-7.5781-0.94531-9.9453 1.8945 0 0-4.7344 7.1055-10.418 6.6289h-0.47266c-1.8945 0-3.7891-0.94531-7.1055-3.3164-3.7891-2.8398-9.4727-6.6289-17.523-6.6289-11.84 0-19.891 8.5234-22.73 13.262-2.3672 4.2617-1.418 8.5234 1.8945 10.418z"/>
  <path d="m451.3 353.74c-0.47266-0.94531-0.94531-1.4219-1.8945-2.3672-0.47266-0.47266-0.94531-0.94531-1.8945-0.94531h-0.47266-1.4219-0.47266-1.8945c-0.47266 0-0.94531 0.47266-1.4219 0.47266h-0.47266c-0.47266 0-0.47266 0-0.94531 0.47266h-0.47266-0.47266c-7.1055 4.2617-26.992 13.262-26.992 26.52 0.47266 4.2617-2.8398 11.367-5.2109 14.68-1.8945 2.3672-5.2109 2.8398-6.1562 2.8398h-0.94531-13.262c1.8945-12.785 1.4219-25.574-8.0508-28.414-6.1562-1.8945-16.574-5.6836-20.836 1.8945-1.4219 2.3672-1.4219 4.7344-0.47266 7.1055l8.0508 3.3164c0.94531 0.47266 1.4219 0.94531 1.4219 1.8945 0.47266 0.94531 0 2.3672-0.94531 3.3164 0 0-5.6836 3.3164-8.0508 10.891 0 0.47266-0.47266 0.47266-0.47266 0.47266h-6.6289-0.94531c-0.94531 0-4.2617-0.47266-6.1562-2.8398-2.8398-2.8398-5.6836-10.418-5.2109-14.68-0.47266-12.785-19.891-22.258-26.992-26.52h-0.47266s-0.47266 0-0.94531-0.47266h-0.47266c-0.47266 0-0.94531-0.47266-1.4219-0.47266h-1.8945-0.47266-1.4219-0.47266c-0.47266 0-0.94531 0.47266-1.8945 0.94531-0.94531 0.94531-1.4219 1.4219-1.8945 2.3672-0.94531 2.3672-0.47266 4.2617 0.47266 6.6289l13.734 24.152c-2.3672 12.312 6.6289 36.465 32.203 43.098 0.47266 2.3672 0.94531 4.7344 1.8945 6.6289l-16.594 7.5781h-0.47266l-12.785-20.836c-1.8945-3.3164-6.6289-4.2617-9.9453-2.3672-3.3164 1.8945-4.2617 6.6289-2.3672 9.9453l23.68 37.887c1.4219 2.3672 3.7891 3.3164 6.1562 3.3164 1.4219 0 2.3672-0.47266 3.7891-0.94531 3.3164-1.8945 4.2617-6.6289 2.3672-9.9453l-2.8398-4.7344 15.156-6.6289c0.47266 0.94531 1.4219 1.8945 1.8945 2.8398l-7.5781 9.9453c-1.8945 2.3672-1.8945 5.6836-0.47266 8.0508 0.47266 0.47266 9.9453 15.156 26.992 15.156 17.051 0 26.992-14.207 27.469-14.68 1.8945-2.3672 1.8945-6.1562 0-8.5234l-7.5781-9.9453c0.94531-0.94531 1.4219-2.3672 2.3672-3.7891l15.156 7.1055-3.3164 4.7344c-1.8945 3.3164-0.94531 7.5781 2.3672 9.9453 0.94531 0.94531 2.3672 0.94531 3.7891 0.94531 2.3672 0 4.7344-0.94531 6.1562-3.3164l23.68-37.887c1.8945-3.3164 0.94531-7.5781-2.3672-9.9453-3.3164-1.8945-7.5781-0.94531-9.9453 2.3672l-13.266 21.305-17.051-8.0508c0.47266-1.8945 0.94531-4.2617 1.4219-6.1562 25.574-7.1055 35.047-30.781 32.203-43.098l13.734-24.152c0.94922-2.3672 1.8945-4.7383 0.94922-7.1055zm-75.301 96.137c-12.785-6.6289-16.574-27.469-17.051-40.727h34.098c-0.46875 11.84-3.7852 34.098-17.047 40.727z"/>
  <path d="m376.48 503.87c0-3.7891 2.8398-7.1055 6.6289-7.5781 3.7891-0.47266 7.1055 2.8398 7.5781 6.6289 0.47266 3.7891-2.8398 7.1055-6.6289 7.5781h-0.47266c-3.793 0.003906-7.1055-2.8398-7.1055-6.6289zm-22.734 4.7383c-3.7891-0.94531-6.1562-4.7344-5.6836-8.5234 0.94531-3.7891 4.7344-6.1562 8.5234-5.6836 3.7891 0.94531 6.1562 4.7344 5.6836 8.5234-0.47266 3.3164-3.7891 5.6836-7.1055 5.6836-0.46875 0.47266-0.94531 0-1.418 0zm50.676-8.5273c-1.4219-3.7891 0.47266-7.5781 4.2617-8.9961 3.7891-1.4219 7.5781 0.47266 8.9961 4.2617 1.4219 3.7891-0.47266 7.5781-4.2617 8.9961-0.94531 0.47266-1.4219 0.47266-2.3672 0.47266-2.8438 0.003906-5.6836-1.8906-6.6289-4.7344zm-79.09-1.418c-3.3164-1.8945-4.7344-6.1562-2.8398-9.4727s6.1562-4.7344 9.4727-2.8398c3.3164 1.8945 4.7344 6.1562 2.8398 9.4727-1.4219 2.3672-3.7891 3.7891-6.1562 3.7891-1.4219-0.003906-2.3672-0.47656-3.3164-0.94922zm105.14-9.9453c-2.3672-3.3164-1.4219-7.5781 1.4219-9.9453 3.3164-2.3672 7.5781-1.4219 9.9453 1.4219 2.3672 3.3164 1.4219 7.5781-1.8945 9.9453-1.4219 0.94531-2.8398 1.4219-4.2617 1.4219-1.4258-0.003906-3.793-0.94922-5.2109-2.8438zm-130.24-7.5781c-2.8398-2.8398-2.8398-7.1055-0.47266-9.9453 2.8398-2.8398 7.1055-2.8398 9.9453-0.47266 2.8398 2.8398 2.8398 7.1055 0.47266 9.9453-1.4219 1.4219-3.3164 2.3672-5.2109 2.3672-1.418 0-3.3125-0.47266-4.7344-1.8945zm152.5-10.418c-3.3164-2.3672-3.7891-7.1055-0.94531-9.9453 2.3672-2.8398 7.1055-3.7891 9.9453-0.94531 2.8398 2.3672 3.3164 7.1055 0.94531 9.9453-1.4219 1.8945-3.3164 2.3672-5.6836 2.3672-1.4219-0.003906-3.3164-0.47656-4.2617-1.4219zm-171.44-12.789c-1.8945-3.3164-0.94531-7.5781 2.3672-9.9453 3.3164-1.8945 7.5781-0.94531 9.9453 2.3672 1.8945 3.3164 0.94531 7.5781-2.3672 9.9453-0.94531 0.47266-2.3672 0.94531-3.7891 0.94531-2.8398 0.003906-5.2109-0.94531-6.1562-3.3125zm187.54-10.418c-3.7891-1.4219-5.2109-5.6836-3.7891-9.4727 1.4219-3.7891 5.6836-5.2109 9.4727-3.7891 3.7891 1.4219 5.2109 5.6836 3.7891 9.4727-0.94531 2.8398-3.7891 4.2617-6.6289 4.2617-0.94922 0-1.8984 0-2.8438-0.47266zm-199.85-17.523c-0.94531-3.7891 0.94531-7.5781 4.7344-8.5234 3.7891-0.94531 7.5781 0.94531 8.9961 4.7344 0.94531 3.7891-0.94531 7.5781-4.7344 8.9961-0.47266 0-1.4219 0.47266-1.8945 0.47266-3.3125-0.46875-6.1562-2.3633-7.1016-5.6797zm209.32-9.4688c-3.7891-0.47266-6.6289-4.2617-6.1562-8.0508 0.47266-3.7891 4.2617-6.6289 8.0508-6.1562s6.6289 4.2617 6.1562 8.0508c-0.47266 3.7891-3.7891 6.1562-7.1055 6.1562-0.46875 0.47266-0.46875 0-0.94531 0zm-213.58-20.367v0c0-4.2617 3.3164-7.5781 7.1055-7.5781 3.7891 0 7.1055 3.3164 7.1055 7.1055 0 3.7891-3.3164 7.1055-7.1055 7.1055-3.793 0.47266-7.1055-2.8438-7.1055-6.6328zm207.43-13.73c-0.47266-3.7891 2.3672-7.5781 6.1562-8.0508 3.7891-0.47266 7.5781 2.3672 8.0508 6.1562 0.47266 3.7891-2.3672 7.5781-6.1562 8.0508h-0.94531c-3.7891 0-6.6289-2.8438-7.1055-6.1562zm-198.43-8.0508c-3.7891-0.94531-6.1562-4.7344-4.7344-8.9961 0.94531-3.7891 4.7344-6.1562 8.5234-4.7344 3.7891 0.94531 6.1562 5.2109 4.7344 8.9961-0.94531 3.3164-3.7891 5.2109-6.6289 5.2109-0.47266-0.003906-1.4219-0.47656-1.8945-0.47656zm191.33-17.523c-1.4219-3.7891 0-7.5781 3.7891-9.4727 3.7891-1.4219 8.0508 0 9.4727 3.7891 1.4219 3.7891 0 7.5781-3.7891 9.4727-0.94531 0.47266-1.8945 0.47266-2.8398 0.47266-2.8438 0-5.6875-1.4219-6.6328-4.2617zm-181.86-9.4727c-3.3164-1.8945-4.2617-6.1562-2.3672-9.9453 1.8945-3.3164 6.6289-4.2617 9.9453-2.3672 3.3164 1.8945 4.2617 6.6289 2.3672 9.9453-1.4219 2.3672-3.7891 3.3164-6.1562 3.3164-1.4219 0.47266-2.3672 0-3.7891-0.94922zm168.12-13.262c-2.3672-2.8398-1.8945-7.5781 0.94531-9.9453 2.8398-2.3672 7.5781-1.8945 9.9453 0.94531 2.3672 2.8398 1.8945 7.5781-0.94531 9.9453-1.4219 0.94531-2.8398 1.4219-4.7344 1.4219-1.8945 0.47656-3.7891-0.47266-5.2109-2.3672zm-151.55-9.9453c-2.8398-2.8398-2.3672-7.1055 0.47266-9.9453 2.8398-2.8398 7.5781-2.3672 9.9453 0.47266 2.8398 2.8398 2.3672 7.5781-0.47266 9.9453-1.4219 1.4219-3.3164 1.8945-4.7344 1.8945-1.8945 0.003906-3.7891-0.47266-5.2109-2.3672zm132.13-8.0508c-3.3164-2.3672-3.7891-6.6289-1.8945-9.9453 2.3672-3.3164 6.6289-3.7891 9.9453-1.8945 3.3164 2.3672 3.7891 6.6289 1.8945 9.9453-1.4219 1.8945-3.7891 2.8398-5.6836 2.8398-1.418 0.47656-2.8398 0.003906-4.2617-0.94531zm-110.34-9.4688c-1.8945-3.3164-0.47266-7.5781 2.8398-9.4727 3.3164-1.8945 7.5781-0.47266 9.4727 2.8398 1.8945 3.3164 0.47266 7.5781-2.8398 9.4727-0.94531 0.47266-2.3672 0.94531-3.3164 0.94531-2.3672 0.003906-4.7344-1.418-6.1562-3.7852zm86.664-2.3672c-3.7891-1.4219-5.6836-5.2109-4.2617-8.9961 1.4219-3.7891 5.2109-5.6836 8.9961-4.2617 3.7891 1.4219 5.6836 5.2109 4.2617 8.9961-0.94531 2.8398-3.7891 4.7344-6.6289 4.7344-0.47266 0-1.418-0.47266-2.3672-0.47266zm-60.617-9c-0.94531-3.7891 1.4219-7.5781 5.6836-8.5234 3.7891-0.94531 7.5781 1.8945 8.5234 5.6836 0.94531 3.7891-1.8945 7.5781-5.6836 8.5234h-1.4219c-3.3125 0-6.1523-2.3672-7.1016-5.6836zm35.047 3.3164c-3.7891-0.47266-7.1055-3.7891-6.6289-7.5781 0-3.7891 3.7891-6.6289 7.5781-6.6289 3.7891 0 7.1055 3.7891 6.6289 7.5781-0.47656 3.7852-3.3164 6.6289-7.5781 6.6289z"/>
  <path d="m376 534.65c-74.352 0-134.97-60.617-134.97-134.97 0-74.355 60.617-134.97 134.97-134.97 74.355 0 134.97 60.617 134.97 134.97 0 74.352-60.617 134.97-134.97 134.97zm0-255.73c-66.773 0-120.76 53.988-120.76 120.76 0 66.777 53.988 120.77 120.76 120.77 66.777 0 120.77-53.988 120.77-120.77 0-66.773-53.988-120.76-120.77-120.76z"/>
 </g>
</svg>
